<mxfile host="Electron" modified="2024-05-08T12:58:18.306Z" agent="Mozilla/5.0 (Windows NT 10.0; Win64; x64) AppleWebKit/537.36 (KHTML, like Gecko) draw.io/23.0.2 Chrome/120.0.6099.109 Electron/28.1.0 Safari/537.36" etag="MbN9bvPYJgvFvOPL_-TK" version="23.0.2" type="device">
  <diagram name="Page-1" id="m-7plXBTJl5FeBrscVps">
    <mxGraphModel dx="1950" dy="2340" grid="1" gridSize="10" guides="1" tooltips="1" connect="1" arrows="1" fold="1" page="1" pageScale="1" pageWidth="850" pageHeight="1100" math="0" shadow="0">
      <root>
        <mxCell id="0" />
        <mxCell id="1" parent="0" />
        <mxCell id="jBWIm2fMh9oOo8EYtqqD-1" value="&lt;font style=&quot;font-size: 20px;&quot;&gt;Administrator&lt;/font&gt;" style="shape=umlActor;verticalLabelPosition=bottom;verticalAlign=top;html=1;outlineConnect=0;fontSize=20;" parent="1" vertex="1">
          <mxGeometry x="100" y="-930" width="50" height="100" as="geometry" />
        </mxCell>
        <mxCell id="jBWIm2fMh9oOo8EYtqqD-2" value="&lt;font style=&quot;font-size: 20px;&quot;&gt;Traveler&lt;/font&gt;" style="shape=umlActor;verticalLabelPosition=bottom;verticalAlign=top;html=1;outlineConnect=0;fontSize=20;" parent="1" vertex="1">
          <mxGeometry x="100" y="-310" width="50" height="100" as="geometry" />
        </mxCell>
        <mxCell id="hUeXrVa7HJw_QYJecL_7-128" value="Trip Booking" style="ellipse;whiteSpace=wrap;html=1;fontSize=20;" vertex="1" parent="1">
          <mxGeometry x="220" y="-200" width="290" height="80" as="geometry" />
        </mxCell>
        <mxCell id="hUeXrVa7HJw_QYJecL_7-130" value="Create,view update, delete Profile" style="ellipse;whiteSpace=wrap;html=1;fontSize=20;" vertex="1" parent="1">
          <mxGeometry x="220" y="-300" width="280" height="80" as="geometry" />
        </mxCell>
        <mxCell id="hUeXrVa7HJw_QYJecL_7-136" value="Manage Trip Managers" style="ellipse;whiteSpace=wrap;html=1;fontSize=20;" vertex="1" parent="1">
          <mxGeometry x="210" y="-920" width="290" height="80" as="geometry" />
        </mxCell>
        <mxCell id="hUeXrVa7HJw_QYJecL_7-137" value="Manage Invoice" style="ellipse;whiteSpace=wrap;html=1;fontSize=20;" vertex="1" parent="1">
          <mxGeometry x="210" y="-1010" width="290" height="80" as="geometry" />
        </mxCell>
        <mxCell id="hUeXrVa7HJw_QYJecL_7-138" value="Manage Receipts&amp;nbsp;" style="ellipse;whiteSpace=wrap;html=1;fontSize=20;" vertex="1" parent="1">
          <mxGeometry x="210" y="-820" width="290" height="80" as="geometry" />
        </mxCell>
        <mxCell id="hUeXrVa7HJw_QYJecL_7-139" value="Manage Payments" style="ellipse;whiteSpace=wrap;html=1;fontSize=20;" vertex="1" parent="1">
          <mxGeometry x="210" y="-1100" width="290" height="80" as="geometry" />
        </mxCell>
        <mxCell id="hUeXrVa7HJw_QYJecL_7-140" value="&lt;font style=&quot;font-size: 20px;&quot;&gt;Trip Coordinator&lt;/font&gt;" style="shape=umlActor;verticalLabelPosition=bottom;verticalAlign=top;html=1;outlineConnect=0;fontSize=20;" vertex="1" parent="1">
          <mxGeometry x="100" y="-610" width="50" height="100" as="geometry" />
        </mxCell>
        <mxCell id="hUeXrVa7HJw_QYJecL_7-142" value="Manage Traveler" style="ellipse;whiteSpace=wrap;html=1;fontSize=20;" vertex="1" parent="1">
          <mxGeometry x="220" y="-720" width="280" height="80" as="geometry" />
        </mxCell>
        <mxCell id="hUeXrVa7HJw_QYJecL_7-143" value="&lt;font style=&quot;font-size: 20px;&quot;&gt;Trip Manager&lt;/font&gt;" style="shape=umlActor;verticalLabelPosition=bottom;verticalAlign=top;html=1;outlineConnect=0;fontSize=20;" vertex="1" parent="1">
          <mxGeometry x="690" y="-610" width="50" height="100" as="geometry" />
        </mxCell>
        <mxCell id="hUeXrVa7HJw_QYJecL_7-149" value="Upadate traveler" style="ellipse;whiteSpace=wrap;html=1;fontSize=20;" vertex="1" parent="1">
          <mxGeometry x="220" y="-620" width="290" height="80" as="geometry" />
        </mxCell>
        <mxCell id="hUeXrVa7HJw_QYJecL_7-150" value="" style="endArrow=classic;html=1;rounded=0;entryX=0.011;entryY=0.742;entryDx=0;entryDy=0;entryPerimeter=0;exitX=0.5;exitY=0.5;exitDx=0;exitDy=0;exitPerimeter=0;fontSize=20;" edge="1" parent="1" source="jBWIm2fMh9oOo8EYtqqD-1" target="hUeXrVa7HJw_QYJecL_7-139">
          <mxGeometry width="50" height="50" relative="1" as="geometry">
            <mxPoint x="100" y="-690" as="sourcePoint" />
            <mxPoint x="150" y="-740" as="targetPoint" />
          </mxGeometry>
        </mxCell>
        <mxCell id="hUeXrVa7HJw_QYJecL_7-154" value="" style="endArrow=classic;html=1;rounded=0;entryX=0.044;entryY=0.7;entryDx=0;entryDy=0;entryPerimeter=0;fontSize=20;" edge="1" parent="1" target="hUeXrVa7HJw_QYJecL_7-137">
          <mxGeometry width="50" height="50" relative="1" as="geometry">
            <mxPoint x="120" y="-880" as="sourcePoint" />
            <mxPoint x="223" y="-1031" as="targetPoint" />
          </mxGeometry>
        </mxCell>
        <mxCell id="hUeXrVa7HJw_QYJecL_7-155" value="" style="endArrow=classic;html=1;rounded=0;entryX=0;entryY=0.5;entryDx=0;entryDy=0;fontSize=20;" edge="1" parent="1" target="hUeXrVa7HJw_QYJecL_7-136">
          <mxGeometry width="50" height="50" relative="1" as="geometry">
            <mxPoint x="130" y="-880" as="sourcePoint" />
            <mxPoint x="233" y="-944" as="targetPoint" />
          </mxGeometry>
        </mxCell>
        <mxCell id="hUeXrVa7HJw_QYJecL_7-156" value="" style="endArrow=classic;html=1;rounded=0;entryX=0.034;entryY=0.308;entryDx=0;entryDy=0;entryPerimeter=0;exitX=0.5;exitY=0.5;exitDx=0;exitDy=0;exitPerimeter=0;fontSize=20;" edge="1" parent="1" source="jBWIm2fMh9oOo8EYtqqD-1" target="hUeXrVa7HJw_QYJecL_7-138">
          <mxGeometry width="50" height="50" relative="1" as="geometry">
            <mxPoint x="140" y="-870" as="sourcePoint" />
            <mxPoint x="220" y="-870" as="targetPoint" />
          </mxGeometry>
        </mxCell>
        <mxCell id="hUeXrVa7HJw_QYJecL_7-157" value="" style="endArrow=classic;html=1;rounded=0;entryX=0;entryY=0.5;entryDx=0;entryDy=0;exitX=0.5;exitY=0.5;exitDx=0;exitDy=0;exitPerimeter=0;fontSize=20;" edge="1" parent="1" source="hUeXrVa7HJw_QYJecL_7-140" target="hUeXrVa7HJw_QYJecL_7-142">
          <mxGeometry width="50" height="50" relative="1" as="geometry">
            <mxPoint x="135" y="-870" as="sourcePoint" />
            <mxPoint x="223" y="-1031" as="targetPoint" />
          </mxGeometry>
        </mxCell>
        <mxCell id="hUeXrVa7HJw_QYJecL_7-160" value="Generate Itinerary, receipts" style="ellipse;whiteSpace=wrap;html=1;fontSize=20;" vertex="1" parent="1">
          <mxGeometry x="221" y="-510" width="290" height="80" as="geometry" />
        </mxCell>
        <mxCell id="hUeXrVa7HJw_QYJecL_7-163" value="HandlePayments" style="ellipse;whiteSpace=wrap;html=1;fontSize=20;" vertex="1" parent="1">
          <mxGeometry x="220" y="-410" width="290" height="80" as="geometry" />
        </mxCell>
        <mxCell id="hUeXrVa7HJw_QYJecL_7-164" value="Generate Total Invoice" style="ellipse;whiteSpace=wrap;html=1;fontSize=20;" vertex="1" parent="1">
          <mxGeometry x="570" y="-820" width="290" height="80" as="geometry" />
        </mxCell>
        <mxCell id="hUeXrVa7HJw_QYJecL_7-165" value="&lt;font style=&quot;font-size: 18px;&quot;&gt;Perform/Manage Trip cordinator task&lt;/font&gt;" style="ellipse;whiteSpace=wrap;html=1;fontSize=20;" vertex="1" parent="1">
          <mxGeometry x="570" y="-380" width="290" height="80" as="geometry" />
        </mxCell>
        <mxCell id="hUeXrVa7HJw_QYJecL_7-167" value="Text" style="text;html=1;align=center;verticalAlign=middle;resizable=0;points=[];autosize=1;strokeColor=none;fillColor=none;fontSize=20;" vertex="1" parent="1">
          <mxGeometry x="90" y="-527" width="60" height="40" as="geometry" />
        </mxCell>
        <mxCell id="hUeXrVa7HJw_QYJecL_7-168" value="Manage Traveler" style="ellipse;whiteSpace=wrap;html=1;fontSize=20;" vertex="1" parent="1">
          <mxGeometry x="220" y="-720" width="280" height="80" as="geometry" />
        </mxCell>
        <mxCell id="hUeXrVa7HJw_QYJecL_7-172" value="" style="endArrow=classic;html=1;rounded=0;entryX=0.5;entryY=1;entryDx=0;entryDy=0;" edge="1" parent="1" source="hUeXrVa7HJw_QYJecL_7-143" target="hUeXrVa7HJw_QYJecL_7-164">
          <mxGeometry width="50" height="50" relative="1" as="geometry">
            <mxPoint x="150" y="-630" as="sourcePoint" />
            <mxPoint x="200" y="-680" as="targetPoint" />
          </mxGeometry>
        </mxCell>
        <mxCell id="hUeXrVa7HJw_QYJecL_7-173" value="" style="endArrow=classic;html=1;rounded=0;entryX=0.5;entryY=0;entryDx=0;entryDy=0;exitX=0.5;exitY=0.5;exitDx=0;exitDy=0;exitPerimeter=0;" edge="1" parent="1" source="hUeXrVa7HJw_QYJecL_7-143" target="hUeXrVa7HJw_QYJecL_7-165">
          <mxGeometry width="50" height="50" relative="1" as="geometry">
            <mxPoint x="725" y="-600" as="sourcePoint" />
            <mxPoint x="725" y="-730" as="targetPoint" />
          </mxGeometry>
        </mxCell>
        <mxCell id="hUeXrVa7HJw_QYJecL_7-174" value="" style="endArrow=classic;html=1;rounded=0;entryX=0;entryY=0.5;entryDx=0;entryDy=0;fontSize=20;" edge="1" parent="1" target="hUeXrVa7HJw_QYJecL_7-149">
          <mxGeometry width="50" height="50" relative="1" as="geometry">
            <mxPoint x="130" y="-550" as="sourcePoint" />
            <mxPoint x="230" y="-670" as="targetPoint" />
          </mxGeometry>
        </mxCell>
        <mxCell id="hUeXrVa7HJw_QYJecL_7-175" value="" style="endArrow=classic;html=1;rounded=0;entryX=0;entryY=0.5;entryDx=0;entryDy=0;fontSize=20;exitX=0.5;exitY=0.5;exitDx=0;exitDy=0;exitPerimeter=0;" edge="1" parent="1" source="hUeXrVa7HJw_QYJecL_7-140" target="hUeXrVa7HJw_QYJecL_7-160">
          <mxGeometry width="50" height="50" relative="1" as="geometry">
            <mxPoint x="140" y="-540" as="sourcePoint" />
            <mxPoint x="230" y="-570" as="targetPoint" />
          </mxGeometry>
        </mxCell>
        <mxCell id="hUeXrVa7HJw_QYJecL_7-177" value="" style="endArrow=classic;html=1;rounded=0;entryX=0.036;entryY=0.32;entryDx=0;entryDy=0;fontSize=20;exitX=0.5;exitY=0.5;exitDx=0;exitDy=0;exitPerimeter=0;entryPerimeter=0;" edge="1" parent="1" source="hUeXrVa7HJw_QYJecL_7-140" target="hUeXrVa7HJw_QYJecL_7-163">
          <mxGeometry width="50" height="50" relative="1" as="geometry">
            <mxPoint x="135" y="-550" as="sourcePoint" />
            <mxPoint x="231" y="-460" as="targetPoint" />
          </mxGeometry>
        </mxCell>
        <mxCell id="hUeXrVa7HJw_QYJecL_7-178" value="" style="endArrow=classic;html=1;rounded=0;entryX=0;entryY=0.5;entryDx=0;entryDy=0;fontSize=20;exitX=0.5;exitY=0.5;exitDx=0;exitDy=0;exitPerimeter=0;" edge="1" parent="1" source="jBWIm2fMh9oOo8EYtqqD-2" target="hUeXrVa7HJw_QYJecL_7-130">
          <mxGeometry width="50" height="50" relative="1" as="geometry">
            <mxPoint x="135" y="-550" as="sourcePoint" />
            <mxPoint x="240" y="-374" as="targetPoint" />
          </mxGeometry>
        </mxCell>
        <mxCell id="hUeXrVa7HJw_QYJecL_7-179" value="" style="endArrow=classic;html=1;rounded=0;entryX=0;entryY=0.5;entryDx=0;entryDy=0;fontSize=20;exitX=0.5;exitY=0.5;exitDx=0;exitDy=0;exitPerimeter=0;" edge="1" parent="1" source="jBWIm2fMh9oOo8EYtqqD-2" target="hUeXrVa7HJw_QYJecL_7-128">
          <mxGeometry width="50" height="50" relative="1" as="geometry">
            <mxPoint x="135" y="-250" as="sourcePoint" />
            <mxPoint x="230" y="-250" as="targetPoint" />
          </mxGeometry>
        </mxCell>
        <mxCell id="hUeXrVa7HJw_QYJecL_7-180" value="&lt;font style=&quot;font-size: 24px;&quot;&gt;&lt;u&gt;Trip Management System&lt;/u&gt;&lt;/font&gt;" style="text;html=1;align=center;verticalAlign=middle;resizable=0;points=[];autosize=1;strokeColor=none;fillColor=none;" vertex="1" parent="1">
          <mxGeometry x="260" y="-90" width="300" height="40" as="geometry" />
        </mxCell>
      </root>
    </mxGraphModel>
  </diagram>
</mxfile>
